# xmcd
#
# Track frame offsets:
#	150
#	10383
#	21834
#	32589
#	43882
#	55334
#	66960
#	76814
#	89309
#	101847
#	112996
#	121743
#	133729
#	146427
#	156530
#	168028
#	179166
#	191263
#	202844
#	213442
#	224093
#	234541
#
# Disc length: 3270 seconds
#
# Revision: 1
# Processed by: cddbd v1.5.2PL0 Copyright (c) Steve Scherf et al.
# Submitted via: EZCDAudioConverter 3.1.0.1
#
DISCID=3b0cc416
DTITLE=Mel Tillis - Something Special+Mel Tillis' Greatest Hits 
DYEAR=1968
DGENRE=Country
TTITLE0=Destroyed By Man
TTITLE1=Another Bridge To Burn
TTITLE2=Normally (Norma Loves Me)
TTITLE3=I Haven't Seen Mary In Years
TTITLE4=Old Faithful
TTITLE5=Son Of A Bum
TTITLE6=Something Special
TTITLE7=Lonely Girl
TTITLE8=Can You Build Your House (On A Another Man's Grave)
TTITLE9=Am I Locking Someone In
TTITLE10=I've Lived So Fast And Hard
TTITLE11=These Lonely Hands Of Mine
TTITLE12=Ruby Don't Take Your Love To Town
TTITLE13=Something Special
TTITLE14=I Haven't Seen Mary In Years
TTITLE15=All Right (I Sign The Papers)
TTITLE16=Who's Julie
TTITLE17=Old Faithful
TTITLE18=Goodbye Wheeling
TTITLE19=Life Turned Her That Way
TTITLE20=Destroyed By Man
TTITLE21=Stateside
EXTD=
EXTT0=
EXTT1=
EXTT2=
EXTT3=
EXTT4=
EXTT5=
EXTT6=
EXTT7=
EXTT8=
EXTT9=
EXTT10=
EXTT11=
EXTT12=
EXTT13=
EXTT14=
EXTT15=
EXTT16=
EXTT17=
EXTT18=
EXTT19=
EXTT20=
EXTT21=
PLAYORDER=
